<svg width="40" height="40" viewBox="0 0 40 40" fill="none" xmlns="http://www.w3.org/2000/svg">
<g clip-path="url(#clip0_689_5586)">
<rect width="40" height="53.4783" fill="#F2F2F1"/>
</g>
<g clip-path="url(#clip1_689_5586)">
<path d="M21 33L21 20.3204C21 19.0388 21.633 18 22.4132 18L22.5877 18C22.7682 18 22.9401 18.0547 23.0992 18.1572C23.6262 18.4955 24 19.335 24 20.3218L24 32.5C24 33.3284 23.3284 34 22.5 34L22 34C21.4477 34 21 33.5523 21 33Z" fill="#C59F83"/>
<path d="M22 34L22 20.1861C22 19.1894 22.4146 18.3417 23.0009 18C23.5854 18.3417 24 19.1894 24 20.1861L24 32C24 33.1046 23.1046 34 22 34Z" fill="#6B511F"/>
<path d="M21.9969 21.5293L10.436 23.7639L8.53769 26.2431C7.23416 27.9455 8.44875 30.4053 10.593 30.4053C13.7949 30.4053 16.4437 28.8877 18.3489 26.3154L21.9969 21.5293Z" fill="#61A0B6"/>
<path d="M31.9994 14.8882V22.7177H10.4355V14.8882C10.4355 14.4351 10.4925 13.9946 10.5981 13.5749C11.1471 11.3903 13.0329 9.73659 15.3384 9.53786C15.4913 9.52257 15.6483 9.51562 15.8053 9.51562H26.6283C29.1422 9.51562 31.2504 11.243 31.8354 13.5749C31.941 13.996 31.998 14.4365 31.998 14.8882H31.9994Z" fill="#61A0B6"/>
<path d="M31.8373 13.5749H10.5986C11.1476 11.3903 13.0334 9.73659 15.3389 9.53786C15.4917 9.52257 15.6488 9.51562 15.8058 9.51562H26.6287C29.1427 9.51562 31.2509 11.243 31.8359 13.5749H31.8373Z" fill="#61A0B6"/>
<path d="M20.2384 14.8457V22.717H10.4355V14.8874C10.4355 12.0775 12.591 9.77336 15.3384 9.53711C17.9454 9.76085 20.0175 11.8523 20.2218 14.4622C20.2273 14.5192 20.2287 14.5747 20.2315 14.6317C20.2371 14.6804 20.2371 14.7332 20.2371 14.7846C20.2398 14.804 20.2398 14.8235 20.2398 14.8457H20.2384Z" fill="#BEBCB9"/>
<path d="M20.2389 22.7168H10.436L8.53769 25.196C7.23416 26.8984 8.44875 29.3581 10.593 29.3581C13.7949 29.3581 16.4437 27.8406 18.3489 25.2683L20.2389 22.7168Z" fill="#61A0B6"/>
<path d="M29.5214 17.7159H23.4331C23.2289 17.7159 23.0635 17.5505 23.0635 17.3462C23.0635 17.1419 23.2289 16.9766 23.4331 16.9766H29.5214C29.7257 16.9766 29.891 17.1419 29.891 17.3462C29.891 17.5505 29.7257 17.7159 29.5214 17.7159Z" fill="#E6F5FA"/>
<path d="M20.2396 15.2089V21.8057H14.7809C14.2917 21.8057 13.7775 21.4125 13.6316 20.9233L12.0724 15.7036C11.9279 15.2144 12.2058 14.8184 12.695 14.8184H20.1048C20.1437 14.8184 20.184 14.8211 20.2229 14.8253C20.2285 14.8823 20.2299 14.9379 20.2327 14.9949C20.2382 15.0435 20.2382 15.0963 20.2382 15.1477C20.241 15.1672 20.241 15.1866 20.241 15.2089H20.2396Z" fill="white"/>
<path d="M20.2394 19.6544V20.22L18.8719 19.3028L18.4814 19.0401L18.4119 18.9957L18.2174 18.865L18.02 18.7316L17.3849 18.3064L17.0903 18.6357L16.9333 18.8122L16.7776 18.9873L15.299 20.6452L14.4819 21.5596C14.3957 21.6555 14.2456 21.6653 14.1497 21.5763C14.0538 21.4902 14.0441 21.3429 14.1303 21.247L15.0475 20.2186L16.4121 18.6885L16.5678 18.5134L16.7248 18.3383L16.9124 18.1299L17.0848 17.9353L17.1709 17.8394C17.2126 17.7922 17.2696 17.7658 17.3266 17.763C17.378 17.7574 17.4322 17.7699 17.4794 17.8005L17.5044 17.8158L18.1632 18.2605L18.2716 18.3314L18.4689 18.4648L18.6634 18.5954L18.7885 18.6788L18.826 18.7038L19.1804 18.9429L20.2407 19.6544H20.2394Z" fill="#BEBCB9"/>
<path d="M20.2394 15.2096V15.6501L18.6579 18.1641L18.5273 18.3711L18.4689 18.467L18.398 18.5782L18.2188 18.8659L18.1493 18.9743C17.9617 19.2689 17.4947 19.2689 17.1306 18.9743L16.9333 18.8144L16.5692 18.5171L15.6228 17.7444L15.1476 17.358L14.6709 16.9689L14.4722 16.8036L14.2095 16.5895L12.4404 15.1484H20.238C20.2408 15.1679 20.2408 15.1873 20.2408 15.2096H20.2394Z" fill="white"/>
<path d="M20.2394 15.2094V16.0904L18.8887 18.2361L18.7608 18.4404L18.6621 18.5974L18.6302 18.6461L18.4106 18.9949L18.3439 19.0977C18.2383 19.2701 18.0604 19.3826 17.8464 19.4174C17.7991 19.4243 17.7533 19.4299 17.706 19.4299C17.4601 19.4299 17.1974 19.3312 16.9806 19.1547L16.7763 18.9879L16.4122 18.6906L15.035 17.5691L14.5598 17.18L14.1887 16.8798L14.0803 16.7908L13.9372 16.6755L12.289 15.3303C12.1876 15.2497 12.1737 15.101 12.2543 15.0009C12.3349 14.8995 12.4836 14.8856 12.5836 14.9662L12.8074 15.1482L14.4847 16.5157L14.7474 16.7297L15.256 17.1452L15.7327 17.5343L16.2079 17.9207L16.7221 18.3417L17.0862 18.6364L17.2752 18.792C17.4281 18.9171 17.6171 18.9796 17.7672 18.9574C17.8478 18.9421 17.9075 18.9087 17.9437 18.849L18.0145 18.7336L18.1577 18.5099L18.2661 18.3348L18.2883 18.3028L18.4189 18.0958L20.1825 15.2886L20.2339 15.2094H20.2394Z" fill="#BEBCB9"/>
<path d="M20.2384 21.7812V22.2482H12.0351C11.9044 22.2482 11.7988 22.1453 11.7988 22.0147C11.7988 21.8841 11.9044 21.7812 12.0351 21.7812H20.2384Z" fill="white"/>
<path d="M20.239 22.2461V22.7158H10.539C10.5015 22.7158 10.4653 22.7061 10.4361 22.6908C10.3569 22.6533 10.3027 22.5727 10.3027 22.4823C10.3027 22.392 10.3569 22.3072 10.4361 22.2711C10.4653 22.2558 10.5029 22.2461 10.539 22.2461H20.2376H20.239Z" fill="#BEBCB9"/>
</g>
<defs>
<clipPath id="clip0_689_5586">
<rect width="40" height="40" rx="20" fill="white"/>
</clipPath>
<clipPath id="clip1_689_5586">
<rect width="24" height="28.126" fill="white" transform="translate(8 9.51562)"/>
</clipPath>
</defs>
</svg>
