<svg width="40" height="40" viewBox="0 0 40 40" fill="none" xmlns="http://www.w3.org/2000/svg">
<g clip-path="url(#clip0_1399_4232)">
<rect width="40" height="53.4783" fill="#F2F2F1"/>
</g>
<g clip-path="url(#clip1_1399_4232)">
<path d="M17.2836 9L16.5317 12.3459L13.6396 10.5104L10.5104 13.6396L12.3459 16.5317L9 17.2836V21.7064L12.3459 22.4515L10.5104 25.3504L13.6396 28.4796L16.5317 26.6373L17.2836 29.99L19.3968 29.9832V9H17.2836Z" fill="#333332"/>
<path d="M29.9897 21.7064L29.9829 17.2836L26.637 16.5317L28.4793 13.6396L25.3501 10.5104L22.4512 12.3459L21.7061 9H19.3965V29.9832H21.7061L22.4512 26.6373L25.3501 28.4796L28.4793 25.3504L26.637 22.4515L29.9897 21.7064Z" fill="#666564"/>
<path d="M14.1748 19.7837C14.1748 22.6894 16.5048 25.0465 19.4037 25.1006V14.4668C16.5115 14.521 14.1748 16.878 14.1748 19.7837Z" fill="#F9F9F9"/>
<path d="M19.4913 14.4667C19.4913 14.4667 19.4304 14.4667 19.3965 14.4667V25.1005C19.3965 25.1005 19.4574 25.1005 19.4913 25.1005C22.4309 25.1005 24.815 22.7164 24.815 19.7768C24.815 16.8373 22.4309 14.4531 19.4913 14.4531V14.4667Z" fill="#F9F9F9"/>
</g>
<defs>
<clipPath id="clip0_1399_4232">
<rect width="40" height="40" rx="20" fill="white"/>
</clipPath>
<clipPath id="clip1_1399_4232">
<rect width="20.99" height="20.99" fill="white" transform="translate(9 9)"/>
</clipPath>
</defs>
</svg>
