<svg width="40" height="40" viewBox="0 0 40 40" fill="none" xmlns="http://www.w3.org/2000/svg">
<g clip-path="url(#clip0_1399_4227)">
<rect width="40" height="53.4783" fill="#F2F2F1"/>
</g>
<g clip-path="url(#clip1_1399_4227)">
<path d="M20.2375 8C19.6798 8 19.2188 8.45359 19.2188 9.01872V10.7959C19.2188 11.3536 19.6723 11.8146 20.2375 11.8146V8Z" fill="#333332"/>
<path d="M20.2373 8V11.8072C20.795 11.8072 21.2486 11.3536 21.2486 10.7959V9.01872C21.2486 8.45359 20.795 8 20.2373 8Z" fill="#666564"/>
<path d="M20.2304 9.9043C16.8248 9.9043 12.9358 12.5143 12.9358 15.734C12.9358 15.7935 12.9358 15.853 12.9358 15.9125V23.9953C12.3261 24.7463 11.642 26.0625 11.1289 28.3676H18.0294C17.9848 28.5461 17.9551 28.732 17.9551 28.9253C17.9551 30.1746 18.9738 31.1933 20.223 31.1933C20.223 31.1933 20.223 31.1933 20.2304 31.1933V9.9043C20.2304 9.9043 20.2304 9.9043 20.223 9.9043H20.2304Z" fill="#C59F83"/>
<path d="M29.3243 28.3751C28.8187 26.0774 28.1346 24.7687 27.5249 24.0176V15.734C27.5249 12.5143 23.6508 9.91173 20.2451 9.9043V31.2007C21.4943 31.2007 22.5056 30.182 22.5056 28.9328C22.5056 28.7394 22.4759 28.5535 22.4313 28.3751H29.3318H29.3243Z" fill="#AE9769"/>
</g>
<defs>
<clipPath id="clip0_1399_4227">
<rect width="40" height="40" rx="20" fill="white"/>
</clipPath>
<clipPath id="clip1_1399_4227">
<rect width="18.1882" height="23.2" fill="white" transform="translate(11.1357 8)"/>
</clipPath>
</defs>
</svg>
