<svg width="42" height="41" viewBox="0 0 42 41" fill="none" xmlns="http://www.w3.org/2000/svg">
<path fill-rule="evenodd" clip-rule="evenodd" d="M13.1585 33.2C11.5531 33.9711 9.72922 34.281 7.88371 33.9793C2.80116 33.1486 -0.599799 28.0431 0.290651 22.5954C1.1811 17.1476 6.03065 13.3907 11.1132 14.2215C11.3698 14.2635 11.6248 14.3153 11.8782 14.3769C13.0889 9.8834 17.1204 6.85405 21.38 7.38818C22.8697 2.73758 27.4947 -0.265664 32.3503 0.527998C37.7092 1.40393 41.324 6.56464 40.4287 12.042C40.1577 13.7 39.5081 15.1947 38.5832 16.452C40.6617 18.7372 41.7133 22.2225 41.1132 25.8938C40.1615 31.7165 35.4099 35.8036 30.5149 35.0034C30.4458 34.9922 30.3767 34.9809 30.3076 34.9696C28.5865 38.6805 24.6464 40.9648 20.5409 40.2938C16.8005 39.6824 13.9704 36.788 13.1569 33.2099L13.1585 33.2Z" fill="#FFEFE2"/>
</svg>
