<svg width="53" height="46" viewBox="0 0 53 46" fill="none" xmlns="http://www.w3.org/2000/svg">
<path fill-rule="evenodd" clip-rule="evenodd" d="M8.59041 4.33709C8.8536 3.78642 9.20982 3.28313 9.64494 2.82754C12.3317 0.0144132 17.2409 0.347178 20.6036 3.5588C21.3123 4.23566 21.9026 4.99305 22.3522 5.78195C24.4946 4.82738 27.1278 5.2266 28.9791 6.99472C31.0763 8.99767 31.4657 12.0937 30.0759 14.4032C31.8355 14.9498 33.642 15.9975 35.2185 17.5032C36.4262 18.6566 37.3754 19.9503 38.028 21.265C41.2342 19.8192 45.5547 20.696 48.7294 23.728C52.6996 27.5198 53.3832 33.2615 50.2476 36.5446C49.9299 36.8773 49.5829 37.1682 49.2212 37.4311C49.5507 39.4606 48.9636 41.6101 47.4303 43.2155C44.8472 45.9202 40.5705 46.0255 37.8803 43.4562C37.6416 43.2283 37.424 42.9928 37.2271 42.7357C34.0671 43.7278 30.2129 42.8261 27.3564 40.098C25.3387 38.171 24.207 35.7074 24.0101 33.2929C21.8988 33.4476 19.416 32.5144 17.4056 30.5943C16.545 29.7724 15.8518 28.8477 15.3632 27.897C12.3435 29.1476 8.03849 28.0229 4.71915 24.8527C0.618788 20.9366 -0.428889 15.3589 2.38905 12.4084C2.62388 12.1625 2.8735 11.9446 3.13791 11.7546C2.45952 9.6271 2.79056 7.41273 4.23407 5.90131C5.35296 4.72978 6.93232 4.20545 8.58976 4.30881L8.59041 4.33709Z" fill="#FFEFE2"/>
</svg>
