<svg width="25" height="24" viewBox="0 0 25 24" fill="none" xmlns="http://www.w3.org/2000/svg">
<g clip-path="url(#clip0_689_5497)">
<path d="M11.4509 5.32617H5.4408C4.98538 5.32617 4.54861 5.50177 4.22658 5.81433C3.90455 6.12689 3.72363 6.55081 3.72363 6.99284V18.6595C3.72363 19.1015 3.90455 19.5255 4.22658 19.838C4.54861 20.1506 4.98538 20.3262 5.4408 20.3262H17.461C17.9164 20.3262 18.3532 20.1506 18.6752 19.838C18.9973 19.5255 19.1782 19.1015 19.1782 18.6595V12.8262" stroke="#BEBCB9" stroke-width="1.66667" stroke-linecap="round" stroke-linejoin="round"/>
<path d="M17.8902 4.07636C18.2317 3.74484 18.695 3.55859 19.178 3.55859C19.6611 3.55859 20.1243 3.74484 20.4659 4.07636C20.8075 4.40788 20.9994 4.85752 20.9994 5.32636C20.9994 5.7952 20.8075 6.24484 20.4659 6.57636L12.3093 14.493L8.875 15.3264L9.73359 11.993L17.8902 4.07636Z" stroke="#BEBCB9" stroke-width="1.66667" stroke-linecap="round" stroke-linejoin="round"/>
</g>
<defs>
<clipPath id="clip0_689_5497">
<rect width="20.6061" height="20" fill="white" transform="translate(2.00684 1.99219)"/>
</clipPath>
</defs>
</svg>
