<svg width="31" height="30" viewBox="0 0 31 30" fill="none" xmlns="http://www.w3.org/2000/svg">
<path d="M15.5003 16.4577C15.9135 16.4577 16.2601 16.3177 16.5401 16.0377C16.8191 15.7587 16.9587 15.4125 16.9587 14.9993V9.12956C16.9587 8.71636 16.8191 8.37608 16.5401 8.10872C16.2601 7.84136 15.9135 7.70768 15.5003 7.70768C15.0871 7.70768 14.741 7.8472 14.462 8.12622C14.182 8.40622 14.042 8.75282 14.042 9.16602V15.0358C14.042 15.449 14.182 15.7893 14.462 16.0566C14.741 16.324 15.0871 16.4577 15.5003 16.4577ZM15.5003 22.291C15.9135 22.291 16.2601 22.151 16.5401 21.871C16.8191 21.592 16.9587 21.2459 16.9587 20.8327C16.9587 20.4195 16.8191 20.0729 16.5401 19.7929C16.2601 19.5139 15.9135 19.3743 15.5003 19.3743C15.0871 19.3743 14.741 19.5139 14.462 19.7929C14.182 20.0729 14.042 20.4195 14.042 20.8327C14.042 21.2459 14.182 21.592 14.462 21.871C14.741 22.151 15.0871 22.291 15.5003 22.291ZM15.5003 29.5827C13.483 29.5827 11.5871 29.1996 9.81283 28.4335C8.03852 27.6684 6.49512 26.6296 5.18262 25.3171C3.87012 24.0046 2.8313 22.4612 2.06616 20.6868C1.30005 18.9125 0.916992 17.0167 0.916992 14.9993C0.916992 12.982 1.30005 11.0862 2.06616 9.31185C2.8313 7.53754 3.87012 5.99414 5.18262 4.68164C6.49512 3.36914 8.03852 2.32983 9.81283 1.56372C11.5871 0.798585 13.483 0.416016 15.5003 0.416016C17.5177 0.416016 19.4135 0.798585 21.1878 1.56372C22.9621 2.32983 24.5055 3.36914 25.818 4.68164C27.1305 5.99414 28.1694 7.53754 28.9345 9.31185C29.7006 11.0862 30.0837 12.982 30.0837 14.9993C30.0837 17.0167 29.7006 18.9125 28.9345 20.6868C28.1694 22.4612 27.1305 24.0046 25.818 25.3171C24.5055 26.6296 22.9621 27.6684 21.1878 28.4335C19.4135 29.1996 17.5177 29.5827 15.5003 29.5827ZM15.5003 26.666C18.733 26.666 21.4858 25.53 23.7589 23.2579C26.0309 20.9848 27.167 18.232 27.167 14.9993C27.167 11.7667 26.0309 9.01386 23.7589 6.74081C21.4858 4.46872 18.733 3.33268 15.5003 3.33268C12.2677 3.33268 9.51532 4.46872 7.24324 6.74081C4.97019 9.01386 3.83366 11.7667 3.83366 14.9993C3.83366 18.232 4.97019 20.9848 7.24324 23.2579C9.51532 25.53 12.2677 26.666 15.5003 26.666Z" fill="#FF717D"/>
</svg>
