<svg width="21" height="20" viewBox="0 0 21 20" fill="none" xmlns="http://www.w3.org/2000/svg">
<g clip-path="url(#clip0_689_5498)">
<path d="M9.45091 3.32617H3.4408C2.98538 3.32617 2.54861 3.50177 2.22658 3.81433C1.90455 4.12689 1.72363 4.55081 1.72363 4.99284V16.6595C1.72363 17.1015 1.90455 17.5255 2.22658 17.838C2.54861 18.1506 2.98538 18.3262 3.4408 18.3262H15.461C15.9164 18.3262 16.3532 18.1506 16.6752 17.838C16.9973 17.5255 17.1782 17.1015 17.1782 16.6595V10.8262" stroke="#BEBCB9" stroke-width="1.66667" stroke-linecap="round" stroke-linejoin="round"/>
<path d="M15.8902 2.07636C16.2317 1.74484 16.695 1.55859 17.178 1.55859C17.6611 1.55859 18.1243 1.74484 18.4659 2.07636C18.8075 2.40788 18.9994 2.85752 18.9994 3.32636C18.9994 3.7952 18.8075 4.24484 18.4659 4.57636L10.3093 12.493L6.875 13.3264L7.73359 9.99303L15.8902 2.07636Z" stroke="#BEBCB9" stroke-width="1.66667" stroke-linecap="round" stroke-linejoin="round"/>
</g>
<defs>
<clipPath id="clip0_689_5498">
<rect width="20.6061" height="20" fill="white" transform="translate(0.00683594 -0.0078125)"/>
</clipPath>
</defs>
</svg>
