<svg width="25" height="25" viewBox="0 0 25 25" fill="none" xmlns="http://www.w3.org/2000/svg">
<g clip-path="url(#clip0_689_5497)">
<path d="M11.4509 6.31836H5.4408C4.98538 6.31836 4.54861 6.49395 4.22658 6.80651C3.90455 7.11908 3.72363 7.543 3.72363 7.98503V19.6517C3.72363 20.0937 3.90455 20.5176 4.22658 20.8302C4.54861 21.1428 4.98538 21.3184 5.4408 21.3184H17.461C17.9164 21.3184 18.3532 21.1428 18.6752 20.8302C18.9973 20.5176 19.1782 20.0937 19.1782 19.6517V13.8184" stroke="#BEBCB9" stroke-width="1.66667" stroke-linecap="round" stroke-linejoin="round"/>
<path d="M17.8902 5.06855C18.2317 4.73703 18.695 4.55078 19.178 4.55078C19.6611 4.55078 20.1243 4.73703 20.4659 5.06855C20.8075 5.40007 20.9994 5.84971 20.9994 6.31855C20.9994 6.78739 20.8075 7.23703 20.4659 7.56855L12.3093 15.4852L8.875 16.3185L9.73359 12.9852L17.8902 5.06855Z" stroke="#BEBCB9" stroke-width="1.66667" stroke-linecap="round" stroke-linejoin="round"/>
</g>
<defs>
<clipPath id="clip0_689_5497">
<rect width="20.6061" height="20" fill="white" transform="translate(2.00684 2.98438)"/>
</clipPath>
</defs>
</svg>
