<svg width="25" height="24" viewBox="0 0 25 24" fill="none" xmlns="http://www.w3.org/2000/svg">
<g clip-path="url(#clip0_689_5508)">
<path d="M11.8298 5.33398H5.81971C5.36429 5.33398 4.92752 5.50958 4.60549 5.82214C4.28345 6.1347 4.10254 6.55862 4.10254 7.00065V18.6673C4.10254 19.1093 4.28345 19.5333 4.60549 19.8458C4.92752 20.1584 5.36429 20.334 5.81971 20.334H17.8399C18.2953 20.334 18.7321 20.1584 19.0541 19.8458C19.3762 19.5333 19.5571 19.1093 19.5571 18.6673V12.834" stroke="#BEBCB9" stroke-width="1.66667" stroke-linecap="round" stroke-linejoin="round"/>
<path d="M18.2691 4.08417C18.6106 3.75265 19.0739 3.56641 19.5569 3.56641C20.04 3.56641 20.5032 3.75265 20.8448 4.08417C21.1864 4.41569 21.3783 4.86533 21.3783 5.33417C21.3783 5.80301 21.1864 6.25265 20.8448 6.58417L12.6882 14.5008L9.25391 15.3342L10.1125 12.0008L18.2691 4.08417Z" stroke="#BEBCB9" stroke-width="1.66667" stroke-linecap="round" stroke-linejoin="round"/>
</g>
<defs>
<clipPath id="clip0_689_5508">
<rect width="20.6061" height="20" fill="white" transform="translate(2.38574 2)"/>
</clipPath>
</defs>
</svg>
