<svg width="40" height="40" viewBox="0 0 40 40" fill="none" xmlns="http://www.w3.org/2000/svg">
<g clip-path="url(#clip0_689_5569)">
<rect width="40" height="53.4783" fill="#F2F2F1"/>
</g>
<g clip-path="url(#clip1_689_5569)">
<path d="M29.0004 18.2236C29.0004 17.4523 28.5666 16.8196 27.5965 16.8196H24.0896C24.0354 16.8196 23.9811 16.8196 23.9269 16.8256V12.4692C23.9269 11.5654 23.2159 10.8242 22.3422 10.8242C21.4685 10.8242 20.7575 11.5593 20.7575 12.4692V13.8792C20.5707 17.5306 16.2444 17.374 16.2444 17.374C15.0092 17.374 14.5512 18.6574 14.5512 18.6574C14.5512 18.6574 14.3584 21.4111 14.3584 24.6769C14.3584 27.9427 16.4613 28.0331 16.4613 28.0331H24.7825C25.7526 28.0331 26.1865 27.4064 26.1865 26.6291C26.1865 25.8519 25.7526 25.2252 24.7825 25.2252H25.8551C26.8252 25.2252 27.259 24.5985 27.259 23.8213C27.259 23.044 26.8252 22.4173 25.8551 22.4173H26.6263C27.5965 22.4173 28.3798 21.7907 28.3798 21.0134C28.3798 20.2361 27.5965 19.6094 26.6263 19.6094H27.6025C28.5726 19.6094 29.0064 18.9828 29.0064 18.2055L29.0004 18.2236ZM24.0715 19.6275C24.0715 19.6275 24.0836 19.6275 24.0896 19.6275H24.0715Z" fill="#EFDED2"/>
<path d="M11.2547 16.674H14.5265C15.105 16.674 15.581 17.144 15.581 17.7285V27.4416C15.581 28.02 15.111 28.4961 14.5265 28.4961H11.2547C10.6762 28.4961 10.2002 28.0261 10.2002 27.4416V17.7224C10.2002 17.144 10.6702 16.668 11.2547 16.668V16.674Z" fill="#61A0B6"/>
</g>
<defs>
<clipPath id="clip0_689_5569">
<rect width="40" height="40" rx="20" fill="white"/>
</clipPath>
<clipPath id="clip1_689_5569">
<rect width="18.7996" height="17.6608" fill="white" transform="translate(10.2002 10.8242)"/>
</clipPath>
</defs>
</svg>
