<svg width="20" height="20" viewBox="0 0 20 20" fill="none" xmlns="http://www.w3.org/2000/svg">
<g clip-path="url(#clip0_1218_4232)">
<path fill-rule="evenodd" clip-rule="evenodd" d="M4.20268 7.17582C3.91697 6.53846 3.76312 5.83516 3.76312 5.08791C3.76312 2.28022 6.01587 0 8.7906 0C10.0818 0 11.2631 0.494506 12.1532 1.30769C12.84 0.747253 13.7357 0.406593 14.7082 0.406593C16.884 0.406593 18.6477 2.09341 18.6477 4.17582C18.6477 4.97253 18.3895 5.71429 17.9444 6.32418C19.1972 7.32967 19.9994 8.85165 19.9994 10.5494C19.9994 13.5659 17.4884 16.0165 14.395 16.0165C13.7576 16.0165 13.1477 15.9121 12.5763 15.7198C11.5488 17.9451 9.24664 19.5 6.57631 19.5C2.94994 19.5 0.00488281 16.6429 0.00488281 13.1209C0.00488281 10.4121 1.75214 8.09341 4.20818 7.17033L4.20268 7.17582Z" fill="#FFEFE2"/>
</g>
<defs>
<clipPath id="clip0_1218_4232">
<rect width="20" height="19.5055" fill="white"/>
</clipPath>
</defs>
</svg>
