<svg width="56" height="56" viewBox="0 0 56 56" fill="none" xmlns="http://www.w3.org/2000/svg">
<g clip-path="url(#clip0_1475_4598)">
<rect width="56" height="56" rx="28" fill="#FFCDCA"/>
<path d="M28.0087 51.6484C41.064 51.6484 51.6474 41.065 51.6474 28.0097C51.6474 14.9545 41.064 4.37109 28.0087 4.37109C14.9535 4.37109 4.37012 14.9545 4.37012 28.0097C4.37012 41.065 14.9535 51.6484 28.0087 51.6484Z" fill="white" stroke="#FF6A60" stroke-width="1.20351" stroke-miterlimit="10"/>
<path d="M28.0086 48.3747C39.256 48.3747 48.3737 39.2569 48.3737 28.0096C48.3737 16.7623 39.256 7.64453 28.0086 7.64453C16.7613 7.64453 7.64355 16.7623 7.64355 28.0096C7.64355 39.2569 16.7613 48.3747 28.0086 48.3747Z" fill="#FF6A60"/>
<path d="M36.0534 20.1934C36.607 20.8347 36.9422 21.6685 36.9422 22.5832C36.9422 24.6051 35.3037 26.2453 33.2801 26.2453C31.8153 26.2453 30.5516 25.3856 29.967 24.1426C29.6266 24.9335 29.4375 25.8051 29.4375 26.7198C29.4375 30.3252 32.3603 33.248 35.9657 33.248C39.571 33.248 42.4939 30.3252 42.4939 26.7198C42.4939 23.1144 39.6192 20.2415 36.0551 20.1934H36.0534Z" fill="white"/>
<path d="M37.0284 26.7188H18.8296C17.0511 26.7188 15.6094 28.1605 15.6094 29.939V35.7863C15.6094 37.5648 17.0511 39.0066 18.8296 39.0066H37.0284C38.8069 39.0066 40.2486 37.5648 40.2486 35.7863V29.939C40.2486 28.1605 38.8069 26.7188 37.0284 26.7188Z" fill="white"/>
<path d="M28.4373 17.0098C26.5014 17.0098 24.7649 17.8522 23.5682 19.1898C24.9041 19.7349 25.848 21.0467 25.848 22.5803C25.848 24.5007 24.3694 26.0739 22.4902 26.2286C23.5149 28.4912 25.7913 30.0661 28.4373 30.0661C32.0427 30.0661 34.9655 27.1433 34.9655 23.5379C34.9655 19.9326 32.0427 17.0098 28.4373 17.0098Z" fill="white"/>
<path d="M19.5516 33.2478C23.157 33.2478 26.0798 30.325 26.0798 26.7196C26.0798 23.1142 23.157 20.1914 19.5516 20.1914C15.9462 20.1914 13.0234 23.1142 13.0234 26.7196C13.0234 30.325 15.9462 33.2478 19.5516 33.2478Z" fill="white"/>
</g>
<defs>
<clipPath id="clip0_1475_4598">
<rect width="56" height="56" rx="28" fill="white"/>
</clipPath>
</defs>
</svg>
